<svg width="512" height="512" viewBox="0 0 512 512" fill="none" xmlns="http://www.w3.org/2000/svg">
<g clip-path="url(#clip0_5_428)">
<rect width="512" height="512" rx="256" fill="black"/>
<g filter="url(#filter0_f_5_428)">
<circle cx="256" cy="256" r="256" fill="url(#paint0_radial_5_428)"/>
</g>
<g filter="url(#filter1_dd_5_428)">
<path d="M320 362.667V384C320 392.405 318.345 400.727 315.127 408.493C311.913 416.256 307.198 423.311 301.254 429.254C295.311 435.198 288.256 439.913 280.493 443.128C272.727 446.345 264.405 448 256 448C247.595 448 239.273 446.345 231.507 443.128C223.744 439.913 216.689 435.198 210.745 429.254C204.802 423.311 200.088 416.256 196.872 408.493C193.655 400.727 192 392.405 192 384V362.667H426.667C426.667 362.667 383 257 383 193M320 83C293 69.4083 279.17 64 256 64C186.283 64 128 122.283 128 192C128 277.333 85.3333 362.667 85.3333 362.667H128" fill="black"/>
<path d="M320 362.667V384C320 392.405 318.345 400.727 315.127 408.493C311.913 416.256 307.198 423.311 301.254 429.254C295.311 435.198 288.256 439.913 280.493 443.128C272.727 446.345 264.405 448 256 448C247.595 448 239.273 446.345 231.507 443.128C223.744 439.913 216.689 435.198 210.745 429.254C204.802 423.311 200.088 416.256 196.872 408.493C193.655 400.727 192 392.405 192 384V362.667H426.667C426.667 362.667 383 257 383 193M320 83C293 69.4083 279.17 64 256 64C186.283 64 128 122.283 128 192C128 277.333 85.3333 362.667 85.3333 362.667H128" stroke="black" stroke-width="15" stroke-linecap="round" stroke-linejoin="round"/>
</g>
<ellipse cx="266.5" cy="211.5" rx="124.5" ry="151.5" fill="black"/>
<circle cx="320" cy="345" r="18" fill="black"/>
<rect x="122" y="299" width="119" height="71" fill="black"/>
<path d="M154.55 362.5L118.85 328.15H137.75L173.3 362.5L137.75 396.85H118.85L154.55 362.5Z" fill="#F5D06F"/>
</g>
<defs>
<filter id="filter0_f_5_428" x="-120" y="-120" width="752" height="752" filterUnits="userSpaceOnUse" color-interpolation-filters="sRGB">
<feFlood flood-opacity="0" result="BackgroundImageFix"/>
<feBlend mode="normal" in="SourceGraphic" in2="BackgroundImageFix" result="shape"/>
<feGaussianBlur stdDeviation="60" result="effect1_foregroundBlur_5_428"/>
</filter>
<filter id="filter1_dd_5_428" x="-32.1667" y="-53.5" width="576.333" height="619" filterUnits="userSpaceOnUse" color-interpolation-filters="sRGB">
<feFlood flood-opacity="0" result="BackgroundImageFix"/>
<feColorMatrix in="SourceAlpha" type="matrix" values="0 0 0 0 0 0 0 0 0 0 0 0 0 0 0 0 0 0 127 0" result="hardAlpha"/>
<feOffset/>
<feGaussianBlur stdDeviation="55"/>
<feComposite in2="hardAlpha" operator="out"/>
<feColorMatrix type="matrix" values="0 0 0 0 0.878431 0 0 0 0 0.203922 0 0 0 0 0.635294 0 0 0 0.35 0"/>
<feBlend mode="normal" in2="BackgroundImageFix" result="effect1_dropShadow_5_428"/>
<feColorMatrix in="SourceAlpha" type="matrix" values="0 0 0 0 0 0 0 0 0 0 0 0 0 0 0 0 0 0 127 0" result="hardAlpha"/>
<feOffset/>
<feGaussianBlur stdDeviation="20"/>
<feComposite in2="hardAlpha" operator="out"/>
<feColorMatrix type="matrix" values="0 0 0 0 0.878431 0 0 0 0 0.203922 0 0 0 0 0.635294 0 0 0 0.85 0"/>
<feBlend mode="normal" in2="effect1_dropShadow_5_428" result="effect2_dropShadow_5_428"/>
<feBlend mode="normal" in="SourceGraphic" in2="effect2_dropShadow_5_428" result="shape"/>
</filter>
<radialGradient id="paint0_radial_5_428" cx="0" cy="0" r="1" gradientUnits="userSpaceOnUse" gradientTransform="translate(256 256) rotate(90) scale(256)">
<stop stop-color="#E034A2"/>
<stop offset="1" stop-color="#737373" stop-opacity="0.5"/>
</radialGradient>
<clipPath id="clip0_5_428">
<rect width="512" height="512" rx="256" fill="white"/>
</clipPath>
</defs>
</svg>
